<svg xmlns="http://www.w3.org/2000/svg" xmlns:xlink="http://www.w3.org/1999/xlink" fill="none" version="1.1" width="14.08270263671875" height="14.0849609375" viewBox="0 0 14.08270263671875 14.0849609375"><g><path d="M7.0413427,14.08486Q7.2141981,14.08486,7.3868451,14.076376Q7.5594921,14.067894,7.7315149,14.050949Q7.9035378,14.034003,8.074522,14.008636Q8.2455063,13.983269,8.41504,13.949541Q8.5845737,13.915813,8.7522488,13.873807Q8.9199238,13.8318,9.0853367,13.781615Q9.2507477,13.73143,9.4134989,13.673187Q9.5762491,13.614944,9.7359467,13.548785Q9.8956442,13.482626,10.051904,13.40871Q10.208164,13.334793,10.360609,13.253298Q10.513054,13.171802,10.661316,13.082922Q10.809578,12.994043,10.953302,12.897995Q11.097026,12.801947,11.235865,12.698961Q11.374702,12.595976,11.508322,12.486301Q11.641941,12.376626,11.770018,12.260526Q11.898095,12.144424,12.020323,12.022179Q12.14255,11.899933,12.258633,11.771836Q12.374716,11.64374,12.484375,11.5101Q12.594032,11.37646,12.697002,11.237599Q12.799972,11.09874,12.896005,10.954993Q12.992039,10.811247,13.080904,10.662962Q13.169769,10.514675,13.251252,10.362207Q13.332735,10.20974,13.406639,10.053455Q13.480545,9.897172,13.546694,9.7374496Q13.612843,9.5777283,13.671077,9.4149532Q13.72931,9.2521772,13.779488,9.0867395Q13.829664,8.9213018,13.871664,8.7536001Q13.913664,8.5858994,13.947387,8.4163389Q13.98111,8.2467785,14.006473,8.0757685Q14.031837,7.904758,14.04878,7.7327089Q14.065723,7.5606594,14.074204,7.3879852Q14.082685,7.215312,14.082685,7.0424299Q14.082685,6.8695478,14.074204,6.6968746Q14.065723,6.5242009,14.04878,6.3521514Q14.031837,6.1801019,14.006473,6.0090909Q13.98111,5.8380804,13.947387,5.66852Q13.913664,5.49896,13.871664,5.3312588Q13.829664,5.163558,13.779487,4.9981203Q13.729309,4.8326826,13.671076,4.6699066Q13.612843,4.5071306,13.546694,4.3474083Q13.480545,4.187686,13.406641,4.0314031Q13.332735,3.8751197,13.251253,3.7226515Q13.169769,3.570183,13.080904,3.4218972Q12.992039,3.2736113,12.896005,3.1298652Q12.799972,2.9861193,12.697002,2.847259Q12.594032,2.7083993,12.484374,2.5747597Q12.374716,2.4411201,12.258633,2.3130229Q12.14255,2.1849256,12.020324,2.0626798Q11.898096,1.9404337,11.77002,1.8243333Q11.641942,1.7082331,11.508324,1.5985579Q11.374704,1.4888828,11.235866,1.3858969Q11.097026,1.2829113,10.953302,1.1868632Q10.809578,1.0908152,10.661316,1.0019361Q10.513053,0.91305709,10.360608,0.83156115Q10.208163,0.75006515,10.051904,0.67614859Q9.8956442,0.60223204,9.7359467,0.53607297Q9.5762491,0.46991396,9.4134979,0.41167182Q9.2507477,0.35342962,9.0853357,0.30324465Q8.9199238,0.25305966,8.7522488,0.21105278Q8.5845737,0.16904588,8.41504,0.13531829Q8.2455063,0.1015907,8.074522,0.076223649Q7.9035378,0.050856613,7.7315149,0.033911221Q7.5594921,0.016965827,7.3868451,0.0084829135Q7.2141981,0,7.0413427,0Q6.8684874,0,6.6958404,0.0084829135Q6.5231934,0.016965827,6.3511705,0.033911221Q6.1791472,0.050856613,6.0081625,0.076223657Q5.8371782,0.1015907,5.6676445,0.13531829Q5.4981108,0.16904588,5.3304358,0.21105278Q5.1627607,0.25305966,4.9973483,0.30324465Q4.8319359,0.35342962,4.6691852,0.41167179Q4.5064344,0.46991396,4.3467369,0.53607297Q4.1870394,0.60223204,4.0307803,0.67614859Q3.8745213,0.75006509,3.7220767,0.83156109Q3.5696321,0.91305703,3.4213691,1.0019361Q3.2731061,1.0908152,3.1293821,1.1868632Q2.9856582,1.2829113,2.8468196,1.385897Q2.7079811,1.4888828,2.5743623,1.5985579Q2.4407434,1.7082331,2.3126659,1.8243334Q2.1845887,1.9404337,2.0623615,2.0626798Q1.9401343,2.1849256,1.8240517,2.3130229Q1.7079692,2.4411199,1.5983111,2.5747595Q1.4886528,2.7083991,1.3856831,2.847259Q1.2827134,2.9861193,1.1866802,3.1298652Q1.090647,3.2736113,1.0017816,3.4218972Q0.91291624,3.570183,0.83143282,3.7226515Q0.7499494,3.8751197,0.67604429,4.0314026Q0.60213912,4.187686,0.53599024,4.3474083Q0.46984139,4.5071306,0.41160822,4.6699066Q0.35337502,4.8326826,0.3031978,4.9981203Q0.25302058,5.163558,0.21102017,5.3312588Q0.16901979,5.49896,0.1352974,5.66852Q0.10157502,5.8380804,0.076211892,6.0090914Q0.050848763,6.1801019,0.033905987,6.3521514Q0.01696321,6.5242009,0.008481605,6.6968746Q0,6.8695478,0,7.0424299Q0,7.215312,0.008481605,7.3879852Q0.01696321,7.5606594,0.033905987,7.7327089Q0.050848763,7.904758,0.076211892,8.0757685Q0.10157502,8.2467785,0.1352974,8.4163389Q0.16901979,8.5858994,0.21102017,8.7536011Q0.25302058,8.9213018,0.3031978,9.0867395Q0.35337502,9.2521772,0.41160822,9.4149523Q0.46984139,9.5777283,0.53599024,9.7374496Q0.60213912,9.897172,0.67604423,10.053455Q0.7499494,10.20974,0.83143282,10.362207Q0.91291618,10.514675,1.0017816,10.662961Q1.0906469,10.811247,1.1866801,10.954993Q1.2827133,11.09874,1.3856831,11.237599Q1.4886528,11.376459,1.5983112,11.510099Q1.7079692,11.643739,1.8240517,11.771835Q1.9401343,11.899933,2.0623615,12.022179Q2.1845887,12.144424,2.3126659,12.260526Q2.4407434,12.376627,2.5743623,12.486302Q2.7079811,12.595978,2.8468199,12.698963Q2.9856582,12.801949,3.1293821,12.897996Q3.2731061,12.994044,3.4213691,13.082923Q3.5696318,13.171803,3.7220764,13.253299Q3.874521,13.334795,4.0307803,13.40871Q4.1870394,13.482628,4.3467369,13.548786Q4.5064344,13.614944,4.6691852,13.673187Q4.8319359,13.73143,4.9973488,13.781615Q5.1627607,13.8318,5.3304358,13.873806Q5.4981108,13.915813,5.6676445,13.949541Q5.8371782,13.983269,6.008163,14.008636Q6.1791472,14.034004,6.3511705,14.05095Q6.5231934,14.067894,6.6958404,14.076376Q6.8684874,14.08486,7.0413427,14.08486ZM8.0445471,9.7868652L11.379587,6.8492646C11.567828,6.668097,11.568553,6.3670192,11.381187,6.1849456L8.0461473,2.9913454C7.7629471,2.7215853,7.3018274,2.9276652,7.3018274,3.3241453L7.3018274,4.8047853C4.7991076,5.128305,2.8813477,6.961905,2.8813477,9.1775856C2.8813474,9.3202057,2.8891459,9.4621792,2.9047077,9.6028652C2.9325476,9.8627052,3.2589476,9.9452648,3.4029477,9.7295856C4.1024675,8.6732655,5.4336672,7.9609447,6.9610271,7.9609447C7.0742092,7.9611869,7.1873474,7.9654565,7.3002272,7.9737449L7.3002272,9.4540653C7.3002272,9.850544,7.7613468,10.056625,8.0445471,9.7868652Z" fill-rule="evenodd" fill="#FFFFFF" fill-opacity="1" style="mix-blend-mode:passthrough"/></g></svg>